<?xml version="1.0" standalone="no"?>
<!DOCTYPE svg PUBLIC "-//W3C//DTD SVG 20010904//EN"
 "http://www.w3.org/TR/2001/REC-SVG-20010904/DTD/svg10.dtd">
<svg version="1.0" xmlns="http://www.w3.org/2000/svg"
 width="32.000000pt" height="30.000000pt" viewBox="0 0 32.000000 30.000000"
 preserveAspectRatio="xMidYMid meet">

<g transform="translate(0.000000,30.000000) scale(0.100000,-0.100000)"
fill="#000000" stroke="none">
<path d="M59 251 c-36 -36 -39 -43 -39 -96 0 -42 6 -65 21 -86 55 -78 171 -78
225 0 24 34 29 113 9 151 -17 34 -69 70 -99 70 -18 0 -18 -1 -3 -18 21 -23 21
-39 2 -58 -21 -22 -19 -62 5 -76 11 -7 20 -19 20 -27 0 -11 -13 -13 -63 -9
-83 7 -107 20 -107 59 0 42 26 83 69 108 25 14 30 21 17 21 -10 0 -36 -17 -57
-39z m171 -46 c15 -19 5 -65 -15 -65 -9 0 -12 6 -9 15 4 9 1 15 -7 15 -10 0
-10 3 -2 11 6 6 9 18 6 25 -7 19 11 18 27 -1z m35 -91 c-11 -8 -29 -17 -41
-20 -12 -3 -29 -21 -38 -41 -16 -33 -19 -35 -54 -30 -25 4 -48 18 -69 42 -40
43 -42 59 -5 39 38 -20 129 -17 172 5 43 23 62 26 35 5z"/>
</g>
</svg>
